/* XPM */
static char * math_xpm[] = {
"56 56 501 2",
"  	c None",
". 	c #878985",
"+ 	c #898B85",
"@ 	c #8B8D88",
"# 	c #969893",
"$ 	c #B7B8B4",
"% 	c #BCBDB9",
"& 	c #B6B8B4",
"* 	c #969793",
"= 	c #8B8E88",
"- 	c #969894",
"; 	c #EFF1EE",
"> 	c #F0F1EE",
", 	c #EFF0ED",
"' 	c #B5B7B3",
") 	c #E0E3DD",
"! 	c #DFE2DC",
"~ 	c #E1E4DE",
"{ 	c #E0E3DE",
"] 	c #C3CCD0",
"^ 	c #DDE1DB",
"/ 	c #E1E4DF",
"( 	c #E2E4DF",
"_ 	c #E2E5DF",
": 	c #DDE1DC",
"< 	c #B7C3CA",
"[ 	c #DFE2DD",
"} 	c #E2E5E0",
"| 	c #E3E5E0",
"1 	c #E3E6E0",
"2 	c #C5CED2",
"3 	c #B9C5CC",
"4 	c #E3E6E1",
"5 	c #E4E6E1",
"6 	c #ABBAC6",
"7 	c #C7D0D1",
"8 	c #E1E3DE",
"9 	c #DCDFDB",
"0 	c #93A5BB",
"a 	c #D4DAD7",
"b 	c #E4E7E2",
"c 	c #E5E7E2",
"d 	c #E4E7E1",
"e 	c #BFC9CE",
"f 	c #94A6BB",
"g 	c #DEE1DC",
"h 	c #EEF0ED",
"i 	c #DEE2DB",
"j 	c #DFE3DC",
"k 	c #E0E4DD",
"l 	c #E1E5DF",
"m 	c #E2E6E0",
"n 	c #E3E7E1",
"o 	c #E4E8E2",
"p 	c #E5E8E2",
"q 	c #E5E7E1",
"r 	c #E4E6E0",
"s 	c #E3E6DF",
"t 	c #E2E5DE",
"u 	c #E1E4DD",
"v 	c #E1E3DD",
"w 	c #E0E3DC",
"x 	c #DFE2DB",
"y 	c #9BACBD",
"z 	c #ACBAC5",
"A 	c #B6B7B4",
"B 	c #DEE1DB",
"C 	c #DFE1DC",
"D 	c #E5E7E3",
"E 	c #E5E8E3",
"F 	c #E6E8E3",
"G 	c #E0E2DD",
"H 	c #DDE0DA",
"I 	c #768EAD",
"J 	c #C4CCD0",
"K 	c #B6B7B3",
"L 	c #EEF0EC",
"M 	c #DEE1DA",
"N 	c #E3E5DF",
"O 	c #E6E8E4",
"P 	c #E6E9E4",
"Q 	c #E7E9E4",
"R 	c #BEC7CD",
"S 	c #6D88A8",
"T 	c #DBDEDA",
"U 	c #EEEFEC",
"V 	c #E3E5E1",
"W 	c #E7E9E5",
"X 	c #E4E6E2",
"Y 	c #8CA1B7",
"Z 	c #8CA0B6",
"` 	c #DDE1DA",
" .	c #DEE0DB",
"..	c #E8EAE5",
"+.	c #E8EAE6",
"@.	c #5D7AA1",
"#.	c #B0BCC6",
"$.	c #EDEFEC",
"%.	c #DCE0D9",
"&.	c #E0E4DE",
"*.	c #E6E9E3",
"=.	c #E7EAE5",
"-.	c #E8EBE6",
";.	c #D3D9DB",
">.	c #E3E5E3",
",.	c #E2E4DE",
"'.	c #C3CBCE",
").	c #456697",
"!.	c #D4D8D5",
"~.	c #DDE0D9",
"{.	c #DCDFD9",
"].	c #E8EAE7",
"^.	c #E9EBE7",
"/.	c #DEE2E1",
"(.	c #4F709D",
"_.	c #204A87",
":.	c #2D558D",
"<.	c #AFBCCB",
"[.	c #889CB5",
"}.	c #6884A7",
"|.	c #EDEFEB",
"1.	c #DCDFD8",
"2.	c #DFE1DB",
"3.	c #E0E2DC",
"4.	c #E9EBE6",
"5.	c #EAEBE7",
"6.	c #EAECE7",
"7.	c #8DA1BB",
"8.	c #3D6194",
"9.	c #4D6E9B",
"0.	c #97A9BB",
"a.	c #DBDFD8",
"b.	c #E9ECE7",
"c.	c #EAECE8",
"d.	c #EAEDE9",
"e.	c #7F96B4",
"f.	c #254D89",
"g.	c #C4CED5",
"h.	c #CFD5D6",
"i.	c #234C88",
"j.	c #C7CFD0",
"k.	c #B5B7B2",
"l.	c #EDEEEB",
"m.	c #DBDED7",
"n.	c #EBECE8",
"o.	c #EBEDE9",
"p.	c #EBEDEA",
"q.	c #EBECE9",
"r.	c #ACBBCB",
"s.	c #456799",
"t.	c #234D89",
"u.	c #617EA6",
"v.	c #C9D0D5",
"w.	c #93A6BB",
"x.	c #416596",
"y.	c #DBDED8",
"z.	c #ECEEEB",
"A.	c #B5B6B2",
"B.	c #DADED7",
"C.	c #E7EAE6",
"D.	c #E8EBE7",
"E.	c #EBEEEA",
"F.	c #ECEEEA",
"G.	c #E9ECE9",
"H.	c #4D6E9D",
"I.	c #5E7BA5",
"J.	c #92A6BD",
"K.	c #C5CFD4",
"L.	c #234E88",
"M.	c #6E88AB",
"N.	c #D2D7D8",
"O.	c #D8DBDA",
"P.	c #95A6BB",
"Q.	c #436796",
"R.	c #7A92AE",
"S.	c #B4B6B1",
"T.	c #DADDD7",
"U.	c #E1E3DF",
"V.	c #E2E4E0",
"W.	c #ECEDEA",
"X.	c #96A9C1",
"Y.	c #325890",
"Z.	c #DBE0E2",
"`.	c #E9EBE8",
" +	c #B7C3CE",
".+	c #4E6E9C",
"++	c #29518B",
"@+	c #2F558D",
"#+	c #426596",
"$+	c #DADFD9",
"%+	c #DCE0DA",
"&+	c #B3B6B1",
"*+	c #DADDD6",
"=+	c #D7DDE0",
"-+	c #2C548D",
";+	c #A3B2C6",
">+	c #E9EAE6",
",+	c #7A92AF",
"'+	c #BAC5CB",
")+	c #B2B4B0",
"!+	c #B4B6B2",
"~+	c #D9DDD6",
"{+	c #DEE2DC",
"]+	c #DFE3DD",
"^+	c #5D7AA4",
"/+	c #5C7AA4",
"(+	c #EAECE9",
"_+	c #E9ECE8",
":+	c #BCC7CD",
"<+	c #214B87",
"[+	c #B2B4AF",
"}+	c #B4B5B1",
"|+	c #D9DCD5",
"1+	c #C0CACF",
"2+	c #456898",
"3+	c #30578F",
"4+	c #6F89AB",
"5+	c #E3E6E2",
"6+	c #E7E8E4",
"7+	c #A4B4C8",
"8+	c #D6DCDF",
"9+	c #758DAE",
"0+	c #8298B2",
"a+	c #DDDFD9",
"b+	c #DCDED8",
"c+	c #B2B3AF",
"d+	c #B3B5B1",
"e+	c #D8DCD5",
"f+	c #486A99",
"g+	c #9BACC1",
"h+	c #DAE0E2",
"i+	c #30568F",
"j+	c #9CADC3",
"k+	c #EBEBE7",
"l+	c #DB7C7A",
"m+	c #D33535",
"n+	c #D75F5E",
"o+	c #E4D9D4",
"p+	c #D2D8D6",
"q+	c #D4D9D6",
"r+	c #DADED8",
"s+	c #B1B3AF",
"t+	c #D8DCD4",
"u+	c #D9DDD5",
"v+	c #DADED6",
"w+	c #DBDFD7",
"x+	c #DCE0D8",
"y+	c #29528B",
"z+	c #748DAE",
"A+	c #6380A8",
"B+	c #5575A1",
"C+	c #DD8D8A",
"D+	c #CC0000",
"E+	c #D55150",
"F+	c #DBDFD9",
"G+	c #B1B2AE",
"H+	c #B3B4B0",
"I+	c #D8DBD4",
"J+	c #214A87",
"K+	c #335A8F",
"L+	c #C7CFD5",
"M+	c #A4B5C7",
"N+	c #2A528C",
"O+	c #D3D9DD",
"P+	c #D75857",
"Q+	c #CD0E0D",
"R+	c #E1C4BF",
"S+	c #D9D0C9",
"T+	c #D6B8B2",
"U+	c #B0B2AE",
"V+	c #B1B4AF",
"W+	c #D7DBD4",
"X+	c #D8DCD6",
"Y+	c #C9D1D2",
"Z+	c #2A518C",
"`+	c #627FA5",
" @	c #6783A7",
".@	c #ACBAC8",
"+@	c #708AAC",
"@@	c #2E558D",
"#@	c #B8C4CE",
"$@	c #D7DCDE",
"%@	c #2F568E",
"&@	c #95A8BF",
"*@	c #D7615F",
"=@	c #CE1514",
"-@	c #CC0202",
";@	c #D13635",
">@	c #D98C89",
",@	c #DFD8D4",
"'@	c #D9AEA9",
")@	c #D8B1AC",
"!@	c #DADBD4",
"~@	c #D69590",
"{@	c #D37571",
"]@	c #D6BAB4",
"^@	c #AFB2AD",
"/@	c #D7DAD3",
"(@	c #607DA3",
"_@	c #5877A0",
":@	c #889DB7",
"<@	c #ACB9C8",
"[@	c #E2E4E2",
"}@	c #D3D8DB",
"|@	c #6580A7",
"1@	c #5574A0",
"2@	c #E7E8E5",
"3@	c #E8E9E5",
"4@	c #E0B4B1",
"5@	c #CD0909",
"6@	c #D55250",
"7@	c #D23534",
"8@	c #D65E5C",
"9@	c #E2D6D1",
"0@	c #E1CFCA",
"a@	c #D9817E",
"b@	c #CF2A29",
"c@	c #CC0606",
"d@	c #D24A48",
"e@	c #D02F2E",
"f@	c #CD0F0E",
"g@	c #D1514F",
"h@	c #D8C1BB",
"i@	c #D7DBD3",
"j@	c #AEB1AC",
"k@	c #D6DAD3",
"l@	c #A4B3C1",
"m@	c #28518A",
"n@	c #C6CFD0",
"o@	c #99AABE",
"p@	c #244D89",
"q@	c #28508B",
"r@	c #224C88",
"s@	c #C4CDD3",
"t@	c #E3CECA",
"u@	c #CF1716",
"v@	c #D8726F",
"w@	c #DAAAA6",
"x@	c #D1413F",
"y@	c #D6B5B0",
"z@	c #AEB0AB",
"A@	c #B0B2AD",
"B@	c #D6DAD2",
"C@	c #D5D9D4",
"D@	c #3C6193",
"E@	c #7E94B0",
"F@	c #32588F",
"G@	c #8DA1B9",
"H@	c #E3DAD6",
"I@	c #D02A29",
"J@	c #D5504E",
"K@	c #D9AAA6",
"L@	c #D6B9B3",
"M@	c #AEAFAB",
"N@	c #B0B1AD",
"O@	c #D6D9D2",
"P@	c #7E94AF",
"Q@	c #3B5F92",
"R@	c #DBC8C3",
"S@	c #D25452",
"T@	c #D03534",
"U@	c #D7827F",
"V@	c #2D548D",
"W@	c #7E95B2",
"X@	c #E4E0DB",
"Y@	c #D13837",
"Z@	c #D23C3B",
"`@	c #E3E1DD",
" #	c #DCDDD7",
".#	c #D04240",
"+#	c #D15250",
"@#	c #D7DAD4",
"##	c #D6D9D3",
"$#	c #ADAFAB",
"%#	c #AFB1AD",
"&#	c #D5D9D1",
"*#	c #D5D9D2",
"=#	c #B8C2C6",
"-#	c #254E89",
";#	c #ABB9C2",
">#	c #CF3A38",
",#	c #D89A95",
"'#	c #778FAF",
")#	c #C2CAD0",
"!#	c #D55D5B",
"~#	c #CF1F1E",
"{#	c #E0D2CD",
"]#	c #D9DAD3",
"^#	c #D6A39D",
"/#	c #D5A7A2",
"(#	c #ADAFAA",
"_#	c #AFB0AC",
":#	c #D4D8D1",
"<#	c #4B6C99",
"[#	c #627FA3",
"}#	c #CC0707",
"|#	c #D25654",
"1#	c #A8B6C4",
"2#	c #8DA1B8",
"3#	c #C6CFD2",
"4#	c #D87D7A",
"5#	c #CD0E0E",
"6#	c #DEBFBA",
"7#	c #ACAEAA",
"8#	c #D4D8D0",
"9#	c #91A4B5",
"0#	c #2E558C",
"a#	c #C7CECC",
"b#	c #D4B8B2",
"c#	c #CF3735",
"d#	c #CC0404",
"e#	c #CC0303",
"f#	c #D14A48",
"g#	c #DBC5BF",
"h#	c #DDE0DB",
"i#	c #DBBFBA",
"j#	c #D9A9A5",
"k#	c #D78985",
"l#	c #CD0707",
"m#	c #DBADA9",
"n#	c #DCDFDA",
"o#	c #D9DDD7",
"p#	c #D8DBD5",
"q#	c #ACAEA9",
"r#	c #AEAFAA",
"s#	c #C6CDCB",
"t#	c #2E548C",
"u#	c #8D9BAE",
"v#	c #D06C68",
"w#	c #CD0807",
"x#	c #D0504D",
"y#	c #D5B2AC",
"z#	c #D05350",
"A#	c #CF3432",
"B#	c #D47F7B",
"C#	c #D8BBB5",
"D#	c #D1403F",
"E#	c #CD0908",
"F#	c #D1403E",
"G#	c #CD0202",
"H#	c #CC0101",
"I#	c #D78784",
"J#	c #ACADA8",
"K#	c #ADAEAA",
"L#	c #D4D7D0",
"M#	c #6681A4",
"N#	c #635378",
"O#	c #CD2928",
"P#	c #CD1817",
"Q#	c #D2948F",
"R#	c #D6D8D2",
"S#	c #D9DBD5",
"T#	c #D9DCD6",
"U#	c #DADCD6",
"V#	c #D6938F",
"W#	c #D4736F",
"X#	c #ABADA7",
"Y#	c #D3D7CF",
"Z#	c #A8AAB3",
"`#	c #84213A",
" $	c #CB0405",
".$	c #CF5E5A",
"+$	c #D2CCC4",
"@$	c #D5D8D1",
"#$	c #CD1413",
"$$	c #D3716E",
"%$	c #AAABA7",
"&$	c #ACADA9",
"*$	c #A98B96",
"=$	c #BA1E24",
"-$	c #D2ACA6",
";$	c #D38682",
">$	c #CD0303",
",$	c #CD1C1B",
"'$	c #D8C9C4",
")$	c #A9ABA7",
"!$	c #ABADA9",
"~$	c #D5B8B2",
"{$	c #D49A95",
"]$	c #D7CFC8",
"^$	c #A9ABA6",
"/$	c #858783",
"($	c #ABADA8",
"_$	c #A8AAA6",
":$	c #838581",
"<$	c #80817E",
"[$	c #A7A9A4",
"}$	c #7E807C",
"|$	c #7C7C78",
"1$	c #A4A7A2",
"2$	c #D7D9D3",
"3$	c #A2A59F",
"4$	c #7A7A76",
"5$	c #8A8C87",
"6$	c #CBCEC8",
"7$	c #DEE0DA",
"8$	c #C8CBC4",
"9$	c #767A74",
"0$	c #898B86",
"a$	c #888A85",
"b$	c #737771",
"                                                                                                                ",
"                                                                                                                ",
"                                                                                                                ",
"            . + + + + + + + + + + + + + + + + + + + + + + + + + + + + + + + + + + + + + + + + + + .             ",
"        @ # $ % % % % % % % % % % % % % % % % % % % % % % % % % % % % % % % % % % % % % % % % % % & * =         ",
"        - ; > , , , , , , , , , , , , , , , , , , , , , , , , , , , , , , , , , , , , , , , , , , > ; -         ",
"      + ' > ) ) ) ) ) ) ) ) ) ) ) ) ) ) ) ) ) ) ) ) ) ) ) ) ) ) ) ) ) ) ) ) ) ) ) ) ) ) ) ) ) ) ) ) > ' +       ",
"      . & ; ) ) ) ) ) ) ) ) ) ) ) ) ) ) ) ) ) ) ) ) ) ) ) ) ) ) ) ) ) ) ) ) ) ) ) ) ) ) ) ) ) ! ) ) ; & .       ",
"      . & ; ) ) ) ) ) ) ) ) ) ) ) ) ) ) ) ) ~ ~ ~ ~ ~ ~ ~ ~ ~ ~ { ) ) ) ) ) ) ) ) ) ) ) ) ) ) ] ^ ) ; & .       ",
"      . & ; ) ) ) ) ) ) ) ) ) ) ) ) ) ~ ~ ~ / ( _ _ _ _ _ _ _ / ~ ~ ~ ) ) ) ) ) ) ) ) ) ) ) : < [ ) ; & .       ",
"      . & ; ) ) ) ) ) ) ) ) ) ) ) ~ ~ ~ _ _ _ } | | | 1 | | | } _ _ ( ~ ~ ) ) ) ) ) ) ) ) ) 2 3 ) ) ; & .       ",
"      . & ; ) ) ) ) ) ) ) ) ) ) ~ ~ _ _ | 1 1 4 4 5 5 5 5 5 4 1 1 | } _ ( ~ ~ ) ) ) ) ) ) ) 6 7 ) ) ; & .       ",
"      . & , ! ! ! ! ! ! ! ! ) ) 8 ~ ( _ } | 1 4 5 5 5 5 5 5 4 4 1 | _ _ ~ ~ { ) ! ! ! ! ! 9 0 a ! ! , & .       ",
"      . & , ! ! ! ! ! ! ! ) ) ~ / _ } 1 4 5 5 b b c c c c b b d 5 4 1 | _ ( ~ 8 ) ! ! ! ! e f g ! ! , & .       ",
"      . & h i i i i i i j j k ~ l _ m 1 n d d b o p p p p o b b q d r 1 s _ t u v w x x x y z ! ! ! , & .       ",
"      . A h B B B B B C ! ) 8 / _ | 4 5 b b c D E E F F F E D c c b 5 4 | } ( ~ ) G ! B H I J B B B h A .       ",
"      . K L M M M M M x w v ~ t N 4 5 b c E F O O P Q Q P P O F E D c b 4 | } ( ~ ) [ ! R S T B B B h A .       ",
"      . ' U H H H H B ! [ ) ~ ( } V 5 b D E O O P Q Q W Q P O O F D b X 4 | ( / { ) ! B Y Z ` ` ` ` L ' .       ",
"      . ' U H H H  .B ! ) 8 ( } V 5 b D F O Q W W ..+.+...W W W P O E c X 4 | ( ~ { G ! @.#.H H H H U ' .       ",
"      . ' $.%.%.%.` i ! ) &.l } 1 d b E *.P W =.+.+.-.-.+.+.....;.>.F p q 5 1 _ ,.u w '.).!.~.~.~.~.U ' .       ",
"      . ' $.{.{.H H g ! ) ~ ( | 4 b D O O W +.+.].^.^.^.^.^./.(._.:.<.E c 5 V } / { G [.}.H {.{.{.{.$.' .       ",
"      . ' |.1.1.~.M 2.3.) ~ _ 1 5 c F F Q ..+.4.^.5.6.6.6.^.7._._._.8.F c d r N ,.v w 9.0.~.1.1.1.1.|.' .       ",
"      . ' |.a.a.%.` i j ) ~ _ 1 d b E P =.+.^.b.c.c.d.d.c.c.e._._._.f.g.E b 4 } l &.h.i.j.H %.a.a.a.|.' .       ",
"      . k.l.m.m.{.H B ! ) ~ _ | 5 c F Q ..+.^.c.n.o.p.p.o.q.r._._._.s.t.u.v.4 | ( 8 w.x.B H {.y.y.y.z.A..       ",
"      . k.z.B.a.{.H B ! ) ~ _ 1 b E O W C.D.b.c.o.E.F.F.F.G.H.I.J.<.=.K.u.L.M.N.O.P.Q.R.M ~.1.m.m.m.F.S..       ",
"      . A.z.T.y.{.H  .C G U.V.V X D O W +.^.c.q.W.z.l.l.l.X.Y.Z.`.].W O E  +.+++@+_._.#+$+%+a.B.B.B.o.&+.       ",
"      . A.F.*+m.1.~.M ! G 8 ( | 5 c O W +.^.c.o.F.l.U U =+-+;+n.5.>+..Q F c } ,+_._._._.'+{.m.*+*+*+n.)+.       ",
"      . !+F.~+B.a.%.^ {+]+&./ } 4 D O W +.^.c.o.F.$.h h ^+/+E.(+_+-.=.P E b 4 :+_._._.<+j.{.B.~+~+~+c.[+.       ",
"      . }+o.|+*+m.1.H B ! ) 1+2+3+4+5+6+..4.c.q.W.l.U 7+-+8+o.c.^.+.W F c 5 | ( 9+<+i.0+a+b+*+|+|+|+^.c+.       ",
"      . d+(+e+~+B.a.%.^ {+]+f+_._._.g+O W +.^.c.o.F.h+i+j+p.k+l+m+n+o+E b 4 } / { p+q+H {.r+~+e+|+|+4.s+.       ",
"      . d+c.t+u+v+w+x+` B ! y+_._._.z+F Q ..4.b.c.o.A+B+(+o.C+D+D+D+E+E b 4 } ~ ) ! B %+F+B.~+e+e+e++.G+.       ",
"      . H+^.I+|+*+m.1.~.B C f+_._.J+K+L+O W +.^.^.M+N+O+c.c.P+D+D+D+Q+R+5 | ( v ! B H {.y.S+T+I+I+I+W U+.       ",
"      . V+D.W+W+X+T.y.{.H Y+Z+`+ @.@+@@@#@O W C.$@%@&@^.^.D.*@D+D+D+=@-@;@>@,@[ a+'@)@!@~@{@]@W+W+W+P ^@.       ",
"      . G++./@/@I+|+T.y.{.(@_@! ) ( } :@++<@[@}@|@1@2@..3@4@5@6@7@8@9@0@a@b@c@d@e@D+D+f@g@h@t+i@i@i@F j@.       ",
"      . U+W k@k@W+e+~+B.l@m@n@g [ { / } o@p@q@_.r@s@O O t@u@v@D b 4 } / ~ 3.w@x@D+D+D+D+y@I+/@/@/@/@D z@.       ",
"      . A@P B@B@k@W+|+C@D@E@~.M x j ) ~ _ F@_._._.G@c H@I@J@5 5 1 _ ( ~ ) ! B K@D+D+D+D+L@i@B@B@B@B@b M@.       ",
"      . N@O O@O@O@/@I+P@Q@C@R@S@T@U@! ) 8 V@_._._.W@X@Y@Z@`@| | ( / 8 G C B H  #.#D+D++#@###O@O@O@O@5 $#.       ",
"      . %#c &#&#&#*#=#-#;#*+>#D+D+D+,#! ! '#_._.q@)#!#~#{#( ~ ~ ) ) ! B M ~.1.m.]#^#/#/@k@*#*#*#*#*#| (#.       ",
"      . _#b &#&#&#:#<#[#t+|+}#D+D+D+|#B B ! 1#2#3#4#5#6#~ 8 ) ) ! ! B ` ~.1.m.B.~+e+W+B@&#&#&#&#&#&#_ 7#.       ",
"      . z@4 8#8#8#9#0#a#b#c#d#D+D+D+e#f#g#h#i#j#k#l#m#[ [ ! g g ^ h#n#{.y.B.o#X+p#@#k@*#:#:#:#:#:#:#/ q#.       ",
"      . r#| 8#8#s#t#u#v#w#x#y#z#A#B#C#D#E#F#G#D+H#I#B B ` H H H {.{.a.m.*+~+e+I+/@B@&#8#8#8#8#8#8#8#{ J#.       ",
"      . K#V.L#L#M#N#O#P#Q#R###@#I+S#T#U#V#e#D+D+D+W#{.%.{.{.{.1.a.m.B.*+|+e+I+/@B@&#8#8#8#8#8#8#8#8#) X#.       ",
"      . q#~ Y#Z#`# $.$+$Y#8#@$&#B@/@W+t+|+#$D+D+D+$$B.B.B.T.T.*+~+|+e+I+W+k@O@&#8#Y#Y#Y#Y#Y#Y#Y#Y#Y#! %$.       ",
"      . &$~ Y#*$=$-$Y#Y#Y#Y#8#:#&#B@k@/@W+;$>$D+,$'$~+~+T#T#|+|+t+I+W+/@B@*#&#8#Y#Y#Y#Y#Y#Y#Y#Y#Y#Y#B )$.       ",
"      . !$) Y#Y#Y#Y#Y#Y#Y#Y#Y#Y#8#&#&#B@k@/@~${$]$I+I+I+I+I+W+W+/@k@B@*#&#:#8#Y#Y#Y#Y#Y#Y#Y#Y#Y#Y#Y#B ^$.       ",
"      /$($) Y#Y#Y#Y#Y#Y#Y#Y#Y#Y#Y#8#8#&#&#O@B@B@k@/@/@/@/@k@k@B@B@&#&#:#8#Y#Y#Y#Y#Y#Y#Y#Y#Y#Y#Y#Y#Y#H _$:$      ",
"      <$)$! Y#Y#Y#Y#Y#Y#Y#Y#Y#Y#Y#Y#Y#L#8#:#&#&#&#*#*#*#*#&#&#&#@$8#8#Y#Y#Y#Y#Y#Y#Y#Y#Y#Y#Y#Y#Y#Y#Y#H [$}$      ",
"      |$1$) B@B@B@B@B@B@B@B@B@B@B@O@O@O@O@O@2$/@/@/@/@/@/@/@k@k@*#*#*#*#*#*#*#*#*#*#*#*#&#&#&#&#&#*#H 3$4$      ",
"        5$6$G { ) ) ) ) ) ) ) ) ) ) ) G G [ [ [ ! ! ! ! ! ! ! ! ! ! ! ! ! B B B B B B B B B B B B 7$8$5$        ",
"        9$0$a$a$a$a$a$a$a$a$a$a$a$a$a$a$a$a$a$a$a$a$a$a$a$a$a$a$a$a$a$a$a$a$a$a$a$a$a$a$a$a$a$a$a$a$0$b$        ",
"                                                                                                                ",
"                                                                                                                ",
"                                                                                                                ",
"                                                                                                                ",
"                                                                                                                ",
"                                                                                                                "};
